<svg id="e10d9437-4ff6-427a-b322-b8b69b91f9bf" data-name="Calque 1" xmlns="http://www.w3.org/2000/svg" viewBox="0 0 600 600"><path d="M0,0Z" transform="translate(-50 100)" fill="#f8f8f6"/><path d="M0,0Z" transform="translate(-50 100)" fill="#fefefe"/><path d="M0,0Z" transform="translate(-50 100)" fill="#fdfdfd"/><path d="M0,0Z" transform="translate(-50 100)" fill="#fbfbfb"/><path d="M0,0Z" transform="translate(-50 100)" fill="#ced2d6"/><path d="M0,0Z" transform="translate(-50 100)" fill="#e6ddd5"/><path d="M0,0Z" transform="translate(-50 100)" fill="#fafafa"/><path d="M0,0Z" transform="translate(-50 100)" fill="#c9a877"/><path d="M0,0Z" transform="translate(-50 100)" fill="#eae1d8"/><path d="M0,0Z" transform="translate(-50 100)" fill="#d7dce2"/><path d="M0,0Z" transform="translate(-50 100)" fill="#f7f7f5"/><path d="M0,0Z" transform="translate(-50 100)" fill="#f5f5f3"/><path d="M0,0Z" transform="translate(-50 100)" fill="#cdaa84"/><path d="M0,0Z" transform="translate(-50 100)" fill="#faf9f7"/><path d="M0,0Z" transform="translate(-50 100)" fill="#9e6b50"/><path d="M0,0Z" transform="translate(-50 100)" fill="#c4b4a5"/><path d="M0,0Z" transform="translate(-50 100)" fill="#d8af92"/><path d="M0,0Z" transform="translate(-50 100)" fill="#d7aa89"/><path d="M0,0Z" transform="translate(-50 100)" fill="#384a5e"/><path d="M0,0Z" transform="translate(-50 100)" fill="#757f8b"/><path d="M0,0Z" transform="translate(-50 100)" fill="#a8815a"/><path d="M0,0Z" transform="translate(-50 100)" fill="#ce9d7c"/><path d="M0,0Z" transform="translate(-50 100)" fill="#eef0ef"/><path d="M0,0Z" transform="translate(-50 100)" fill="#d3c4b1"/><path d="M0,0Z" transform="translate(-50 100)" fill="#d4c3b0"/><path d="M0,0Z" transform="translate(-50 100)" fill="#c6a17b"/><path d="M0,0Z" transform="translate(-50 100)" fill="#d5cac1"/><path d="M0,0Z" transform="translate(-50 100)" fill="#ebe5de"/><path d="M0,0Z" transform="translate(-50 100)" fill="#926e4a"/><path d="M0,0Z" transform="translate(-50 100)" fill="#a48466"/><path d="M0,0Z" transform="translate(-50 100)" fill="#f1ede6"/><path d="M0,0Z" transform="translate(-50 100)" fill="#192b3d"/><path d="M0,0Z" transform="translate(-50 100)" fill="#fdfdfb"/><path d="M0,0Z" transform="translate(-50 100)" fill="#f8f7f5"/><path d="M0,0Z" transform="translate(-50 100)" fill="#f8f8f6"/><path d="M0,0Z" transform="translate(-50 100)" fill="#f3f3f1"/><path d="M0,0Z" transform="translate(-50 100)" fill="#f5f5f3"/><path d="M0,0Z" transform="translate(-50 100)" fill="#f3f3f1"/><path d="M0,0Z" transform="translate(-50 100)" fill="#f7f7f5"/><path d="M0,0Z" transform="translate(-50 100)" fill="#f0f0ee"/><path d="M0,0Z" transform="translate(-50 100)" fill="#ececea"/><path d="M0,0Z" transform="translate(-50 100)" fill="#ebebe9"/><path d="M0,0Z" transform="translate(-50 100)" fill="#eeeeec"/><path d="M0,0Z" transform="translate(-50 100)" fill="#ececea"/><path d="M0,0Z" transform="translate(-50 100)" fill="#e7e7e5"/><path d="M0,0Z" transform="translate(-50 100)" fill="#e8e8e6"/><path d="M0,0Z" transform="translate(-50 100)" fill="#f0f0ee"/><path d="M0,0Z" transform="translate(-50 100)" fill="#f1f1ee"/><path d="M0,0Z" transform="translate(-50 100)" fill="#f6f5f3"/><path d="M0,0Z" transform="translate(-50 100)" fill="#f3f3f1"/><path d="M0,0Z" transform="translate(-50 100)" fill="#f0f0ee"/><path d="M0,0Z" transform="translate(-50 100)" fill="#f0f0ee"/><path d="M0,0Z" transform="translate(-50 100)" fill="#eeeeec"/><path d="M0,0Z" transform="translate(-50 100)" fill="#ececeb"/><path d="M0,0Z" transform="translate(-50 100)" fill="#e8e8e8"/><path d="M0,0Z" transform="translate(-50 100)" fill="#20324a"/><path d="M0,0Z" transform="translate(-50 100)" fill="#283b56"/><path d="M0,0Z" transform="translate(-50 100)" fill="#1a2b42"/><path d="M0,0Z" transform="translate(-50 100)" fill="#314458"/><path d="M0,0Z" transform="translate(-50 100)" fill="#101c2e"/><path d="M0,0Z" transform="translate(-50 100)" fill="#152234"/><path d="M0,0Z" transform="translate(-50 100)" fill="#775231"/><path d="M0,0Z" transform="translate(-50 100)" fill="#8e623c"/><path d="M0,0Z" transform="translate(-50 100)" fill="#8b603b"/><path d="M0,0Z" transform="translate(-50 100)" fill="#895e3a"/><path d="M0,0Z" transform="translate(-50 100)" fill="#99744f"/><path d="M0,0Z" transform="translate(-50 100)" fill="#e8e8e7"/><path d="M0,0Z" transform="translate(-50 100)" fill="#bd9558"/><path d="M0,0Z" transform="translate(-50 100)" fill="#c5a16c"/><path d="M0,0Z" transform="translate(-50 100)" fill="#b08652"/><path d="M0,0Z" transform="translate(-50 100)" fill="#a07448"/><path d="M0,0Z" transform="translate(-50 100)" fill="#986c42"/><path d="M0,0Z" transform="translate(-50 100)" fill="#ab7f4f"/><path d="M0,0Z" transform="translate(-50 100)" fill="#f5f5f3"/><path d="M0,0Z" transform="translate(-50 100)" fill="#8e99a6"/><path d="M0,0Z" transform="translate(-50 100)" fill="#976f4a"/><path d="M0,0Z" transform="translate(-50 100)" fill="#946e49"/><path d="M0,0Z" transform="translate(-50 100)" fill="#cab59b"/><path d="M0,0Z" transform="translate(-50 100)" fill="#b59570"/><path d="M0,0Z" transform="translate(-50 100)" fill="#f5f5f3"/><path d="M0,0Z" transform="translate(-50 100)" fill="#f9f8f5"/><path d="M0,0Z" transform="translate(-50 100)" fill="#b08861"/><path d="M0,0Z" transform="translate(-50 100)" fill="#c7a077"/><path d="M0,0Z" transform="translate(-50 100)" fill="#cdaa85"/><path d="M0,0Z" transform="translate(-50 100)" fill="#c29b74"/><path d="M0,0Z" transform="translate(-50 100)" fill="#b88e69"/><path d="M0,0Z" transform="translate(-50 100)" fill="#333946"/><path d="M0,0Z" transform="translate(-50 100)" fill="#bb9a77"/><path d="M0,0Z" transform="translate(-50 100)" fill="#dbbd9b"/><path d="M0,0Z" transform="translate(-50 100)" fill="#b9926e"/><path d="M0,0Z" transform="translate(-50 100)" fill="#c8a47d"/><path d="M0,0Z" transform="translate(-50 100)" fill="#cdaa85"/><path d="M0,0Z" transform="translate(-50 100)" fill="#293b52"/><path d="M0,0Z" transform="translate(-50 100)" fill="#415162"/><path d="M0,0Z" transform="translate(-50 100)" fill="#fefefd"/><path d="M0,0Z" transform="translate(-50 100)" fill="#f8f8f6"/><path d="M0,0Z" transform="translate(-50 100)" fill="#f5f2ee"/><path d="M0,0Z" transform="translate(-50 100)" fill="#b17c5d"/><path d="M0,0Z" transform="translate(-50 100)" fill="#936047"/><path d="M0,0Z" transform="translate(-50 100)" fill="#be8e6a"/><path d="M0,0Z" transform="translate(-50 100)" fill="#ded3ce"/><path d="M0,0Z" transform="translate(-50 100)" fill="#be8e6a"/><path d="M0,0Z" transform="translate(-50 100)" fill="#aa9a88"/><path d="M0,0Z" transform="translate(-50 100)" fill="#dccfc9"/><path d="M0,0Z" transform="translate(-50 100)" fill="#ddd3cd"/><path d="M0,0Z" transform="translate(-50 100)" fill="#e1d7d1"/><path d="M0,0Z" transform="translate(-50 100)" fill="#ddd1c8"/><path d="M0,0Z" transform="translate(-50 100)" fill="#bc876e"/><path d="M0,0Z" transform="translate(-50 100)" fill="#c59480"/><path d="M0,0Z" transform="translate(-50 100)" fill="#d6ae8f"/><path d="M0,0Z" transform="translate(-50 100)" fill="#dab09d"/><path d="M0,0Z" transform="translate(-50 100)" fill="#d9a685"/><path d="M0,0Z" transform="translate(-50 100)" fill="#23354d"/><path d="M0,0Z" transform="translate(-50 100)" fill="#2a3c55"/><path d="M0,0Z" transform="translate(-50 100)" fill="#2e3f52"/><path d="M0,0Z" transform="translate(-50 100)" fill="#2c3c4d"/><path d="M0,0Z" transform="translate(-50 100)" fill="#8f5d3a"/><path d="M0,0Z" transform="translate(-50 100)" fill="#976842"/><path d="M0,0Z" transform="translate(-50 100)" fill="#9d6d44"/><path d="M0,0Z" transform="translate(-50 100)" fill="#b69165"/><path d="M0,0Z" transform="translate(-50 100)" fill="#d8a37f"/><path d="M0,0Z" transform="translate(-50 100)" fill="#d7a078"/><path d="M0,0Z" transform="translate(-50 100)" fill="#d3c7be"/><path d="M0,0Z" transform="translate(-50 100)" fill="#8f6341"/><path d="M0,0Z" transform="translate(-50 100)" fill="#8a5a37"/><path d="M0,0Z" transform="translate(-50 100)" fill="#f5f5f3"/><path d="M0,0Z" transform="translate(-50 100)" fill="#f5f4f1"/><path d="M0,0Z" transform="translate(-50 100)" fill="#43546f"/><path d="M0,0Z" transform="translate(-50 100)" fill="#d8bd9c"/><path d="M0,0Z" transform="translate(-50 100)" fill="#60738c"/><path d="M0,0Z" transform="translate(-50 100)" fill="#465c7d"/><path d="M0,0Z" transform="translate(-50 100)" fill="#dbcec0"/><path d="M0,0Z" transform="translate(-50 100)" fill="#674a35"/><path d="M0,0Z" transform="translate(-50 100)" fill="#85654a"/><path d="M0,0Z" transform="translate(-50 100)" fill="#fcfcf9"/><path d="M0,0Z" transform="translate(-50 100)" fill="#576782"/><path d="M0,0Z" transform="translate(-50 100)" fill="#eeeeed"/><path d="M0,0Z" transform="translate(-50 100)" fill="#475d7b"/><path d="M0,0Z" transform="translate(-50 100)" fill="#c8cdd1"/><path d="M0,0Z" transform="translate(-50 100)" fill="#576782"/><path d="M0,0Z" transform="translate(-50 100)" fill="#998a7d"/><path d="M0,0Z" transform="translate(-50 100)" fill="#85654a"/><path d="M0,0Z" transform="translate(-50 100)" fill="#646f83"/><path d="M0,0Z" transform="translate(-50 100)" fill="#7e868f"/><path d="M0,0Z" transform="translate(-50 100)" fill="#9e9c9c"/><path d="M0,0Z" transform="translate(-50 100)" fill="#eae4de"/><path d="M0,0Z" transform="translate(-50 100)" fill="#181513"/><path d="M0,0Z" transform="translate(-50 100)" fill="#efede9"/><path d="M0,0Z" transform="translate(-50 100)" fill="#d1aa89"/><path d="M0,0Z" transform="translate(-50 100)" fill="#f8f7f5"/><path d="M0,0Z" transform="translate(-50 100)" fill="#f8f7f5"/><path d="M0,0Z" transform="translate(-50 100)" fill="#f4f3f1"/><path d="M0,0Z" transform="translate(-50 100)" fill="#281e18"/><path d="M0,0Z" transform="translate(-50 100)" fill="#d5a671"/><path d="M0,0Z" transform="translate(-50 100)" fill="#281e18"/><path d="M0,0Z" transform="translate(-50 100)" fill="#f8f7f5"/><path d="M0,0Z" transform="translate(-50 100)" fill="#f1f0ed"/><path d="M0,0Z" transform="translate(-50 100)" fill="#25211e"/><path d="M0,0Z" transform="translate(-50 100)" fill="#eae1db"/><path d="M0,0Z" transform="translate(-50 100)" fill="#25211e"/><path d="M0,0Z" transform="translate(-50 100)" fill="#966f58"/><path d="M0,0Z" transform="translate(-50 100)" fill="#181513"/><path d="M0,0Z" transform="translate(-50 100)" fill="#efeae5"/><path d="M0,0Z" transform="translate(-50 100)" fill="#d1a470"/><path d="M0,0Z" transform="translate(-50 100)" fill="#5e554e"/><path d="M0,0Z" transform="translate(-50 100)" fill="#25211e"/><path d="M0,0Z" transform="translate(-50 100)" fill="#c29368"/><path d="M0,0Z" transform="translate(-50 100)" fill="#f8f7f4"/><path d="M0,0Z" transform="translate(-50 100)" fill="#bdab9b"/><path d="M0,0Z" transform="translate(-50 100)" fill="#f8f7f4"/><path d="M0,0Z" transform="translate(-50 100)" fill="#f1f1ee"/><path d="M0,0Z" transform="translate(-50 100)" fill="#eeeae4"/><path d="M0,0Z" transform="translate(-50 100)" fill="#ebe4de"/><path d="M0,0Z" transform="translate(-50 100)" fill="#ebe5df"/><path d="M0,0Z" transform="translate(-50 100)" fill="#efebe6"/><path d="M0,0Z" transform="translate(-50 100)" fill="#e9e1d8"/><path d="M0,0Z" transform="translate(-50 100)" fill="#e7dfd5"/><path d="M0,0Z" transform="translate(-50 100)" fill="#d9c5a8"/><path d="M0,0Z" transform="translate(-50 100)" fill="#cba66b"/><path d="M0,0Z" transform="translate(-50 100)" fill="#cda66e"/><path d="M0,0Z" transform="translate(-50 100)" fill="#f4f5f5"/><path d="M0,0Z" transform="translate(-50 100)" fill="#283b57"/><path d="M0,0Z" transform="translate(-50 100)" fill="#233652"/><path d="M0,0Z" transform="translate(-50 100)" fill="#2f4157"/><path d="M0,0Z" transform="translate(-50 100)" fill="#1d2f47"/><path d="M0,0Z" transform="translate(-50 100)" fill="#24364e"/><path d="M0,0Z" transform="translate(-50 100)" fill="#182537"/><path d="M0,0Z" transform="translate(-50 100)" fill="#2a3d5b"/><path d="M0,0Z" transform="translate(-50 100)" fill="#435877"/><path d="M0,0Z" transform="translate(-50 100)" fill="#455b79"/><path d="M0,0Z" transform="translate(-50 100)" fill="#3e5267"/><path d="M0,0Z" transform="translate(-50 100)" fill="#516680"/><path d="M0,0Z" transform="translate(-50 100)" fill="#946e49"/><path d="M0,0Z" transform="translate(-50 100)" fill="#a57c52"/><path d="M0,0Z" transform="translate(-50 100)" fill="#a27d54"/><path d="M0,0Z" transform="translate(-50 100)" fill="#8a6645"/><path d="M0,0Z" transform="translate(-50 100)" fill="#a58057"/><path d="M0,0Z" transform="translate(-50 100)" fill="#a68156"/><path d="M0,0Z" transform="translate(-50 100)" fill="#936740"/><path d="M0,0Z" transform="translate(-50 100)" fill="#92653e"/><path d="M0,0Z" transform="translate(-50 100)" fill="#966840"/><path d="M0,0Z" transform="translate(-50 100)" fill="#8d613b"/><path d="M0,0Z" transform="translate(-50 100)" fill="#b48950"/><path d="M0,0Z" transform="translate(-50 100)" fill="#b18451"/><path d="M0,0Z" transform="translate(-50 100)" fill="#b99056"/><path d="M0,0Z" transform="translate(-50 100)" fill="#b38954"/><path d="M0,0Z" transform="translate(-50 100)" fill="#b78954"/><path d="M0,0Z" transform="translate(-50 100)" fill="#b98f58"/><path d="M0,0Z" transform="translate(-50 100)" fill="#c69e63"/><path d="M0,0Z" transform="translate(-50 100)" fill="#b99056"/><path d="M0,0Z" transform="translate(-50 100)" fill="#a97b4c"/><path d="M0,0Z" transform="translate(-50 100)" fill="#9e7146"/><path d="M0,0Z" transform="translate(-50 100)" fill="#9e7146"/><path d="M0,0Z" transform="translate(-50 100)" fill="#a67a4c"/><path d="M0,0Z" transform="translate(-50 100)" fill="#7286a1"/><path d="M0,0Z" transform="translate(-50 100)" fill="#fcfcf9"/><path d="M0,0Z" transform="translate(-50 100)" fill="#b38c61"/><path d="M0,0Z" transform="translate(-50 100)" fill="#f8f8f6"/><path d="M0,0Z" transform="translate(-50 100)" fill="#d5a27f"/><path d="M0,0Z" transform="translate(-50 100)" fill="#d0a382"/><path d="M0,0Z" transform="translate(-50 100)" fill="#d29c75"/><path d="M0,0Z" transform="translate(-50 100)" fill="#d5b39d"/><path d="M0,0Z" transform="translate(-50 100)" fill="#cc947f"/><path d="M0,0Z" transform="translate(-50 100)" fill="#d9b19c"/><path d="M0,0Z" transform="translate(-50 100)" fill="#d2a886"/><path d="M0,0Z" transform="translate(-50 100)" fill="#d7ab8a"/><path d="M0,0Z" transform="translate(-50 100)" fill="#ad7d63"/><path d="M0,0Z" transform="translate(-50 100)" fill="#b28264"/><path d="M0,0Z" transform="translate(-50 100)" fill="#a36e52"/><path d="M0,0Z" transform="translate(-50 100)" fill="#72553d"/><path d="M0,0Z" transform="translate(-50 100)" fill="#4a3422"/><path d="M0,0Z" transform="translate(-50 100)" fill="#d1a081"/><path d="M0,0Z" transform="translate(-50 100)" fill="#f3ece7"/><path d="M0,0Z" transform="translate(-50 100)" fill="#f8f8f6"/><path d="M0,0Z" transform="translate(-50 100)" fill="#ddb0a2"/><path d="M0,0Z" transform="translate(-50 100)" fill="#a7795c"/><path d="M0,0Z" transform="translate(-50 100)" fill="#b28c6e"/><path d="M0,0Z" transform="translate(-50 100)" fill="#cea789"/><path d="M0,0Z" transform="translate(-50 100)" fill="#c7967f"/><path d="M0,0Z" transform="translate(-50 100)" fill="#d2a88e"/><path d="M0,0Z" transform="translate(-50 100)" fill="#d9a981"/><path d="M0,0Z" transform="translate(-50 100)" fill="#b58a6c"/><path d="M0,0Z" transform="translate(-50 100)" fill="#d0a692"/><path d="M0,0Z" transform="translate(-50 100)" fill="#f8f7f5"/><path d="M0,0Z" transform="translate(-50 100)" fill="#f8f7f5"/><path d="M0,0Z" transform="translate(-50 100)" fill="#f8f8f6"/><path d="M0,0Z" transform="translate(-50 100)" fill="#f8f8f6"/><path d="M0,0Z" transform="translate(-50 100)" fill="#e0beab"/><path d="M0,0Z" transform="translate(-50 100)" fill="#2b384a"/><path d="M0,0Z" transform="translate(-50 100)" fill="#997352"/><path d="M0,0Z" transform="translate(-50 100)" fill="#c19b76"/><path d="M0,0Z" transform="translate(-50 100)" fill="#d1b18c"/><path d="M0,0Z" transform="translate(-50 100)" fill="#cfac86"/><path d="M0,0Z" transform="translate(-50 100)" fill="#b89068"/><path d="M0,0Z" transform="translate(-50 100)" fill="#c59f75"/><path d="M0,0Z" transform="translate(-50 100)" fill="#bc946d"/><path d="M0,0Z" transform="translate(-50 100)" fill="#ce9d7c"/><path d="M0,0Z" transform="translate(-50 100)" fill="#354252"/><path d="M0,0Z" transform="translate(-50 100)" fill="#262931"/><path d="M0,0Z" transform="translate(-50 100)" fill="#cfac86"/><path d="M0,0Z" transform="translate(-50 100)" fill="#232d3b"/><path d="M0,0Z" transform="translate(-50 100)" fill="#464850"/><path d="M0,0Z" transform="translate(-50 100)" fill="#3d4551"/><path d="M0,0Z" transform="translate(-50 100)" fill="#c5957c"/><path d="M0,0Z" transform="translate(-50 100)" fill="#cf997c"/><path d="M0,0Z" transform="translate(-50 100)" fill="#c99475"/><path d="M0,0Z" transform="translate(-50 100)" fill="#d5bdad"/><path d="M0,0Z" transform="translate(-50 100)" fill="#aa7868"/><path d="M0,0Z" transform="translate(-50 100)" fill="#c6906f"/><path d="M0,0Z" transform="translate(-50 100)" fill="#9c7660"/><path d="M0,0Z" transform="translate(-50 100)" fill="#cf9c77"/><path d="M0,0Z" transform="translate(-50 100)" fill="#c28c6b"/><path d="M0,0Z" transform="translate(-50 100)" fill="#885c3b"/><path d="M0,0Z" transform="translate(-50 100)" fill="#d6c8ba"/><path d="M0,0Z" transform="translate(-50 100)" fill="#cfc2b8"/><path d="M0,0Z" transform="translate(-50 100)" fill="#e9dfda"/><path d="M0,0Z" transform="translate(-50 100)" fill="#ba8d6c"/><path d="M0,0Z" transform="translate(-50 100)" fill="#c2ac99"/><path d="M0,0Z" transform="translate(-50 100)" fill="#ba8c70"/><path d="M0,0Z" transform="translate(-50 100)" fill="#ab6c5d"/><path d="M0,0Z" transform="translate(-50 100)" fill="#cda390"/><path d="M0,0Z" transform="translate(-50 100)" fill="#313f51"/><path d="M0,0Z" transform="translate(-50 100)" fill="#323d4d"/><path d="M0,0Z" transform="translate(-50 100)" fill="#142030"/><path d="M0,0Z" transform="translate(-50 100)" fill="#374657"/><path d="M0,0Z" transform="translate(-50 100)" fill="#182332"/><path d="M0,0Z" transform="translate(-50 100)" fill="#b08456"/><path d="M0,0Z" transform="translate(-50 100)" fill="#a87148"/><path d="M0,0Z" transform="translate(-50 100)" fill="#ae8254"/><path d="M0,0Z" transform="translate(-50 100)" fill="#a6754a"/><path d="M0,0Z" transform="translate(-50 100)" fill="#a6794f"/><path d="M0,0Z" transform="translate(-50 100)" fill="#815331"/><path d="M0,0Z" transform="translate(-50 100)" fill="#9d6d44"/><path d="M0,0Z" transform="translate(-50 100)" fill="#dccfc9"/><path d="M0,0Z" transform="translate(-50 100)" fill="#9b6d44"/><path d="M0,0Z" transform="translate(-50 100)" fill="#95704e"/><path d="M0,0Z" transform="translate(-50 100)" fill="#8f6a4a"/><path d="M0,0Z" transform="translate(-50 100)" fill="#364967"/><path d="M0,0Z" transform="translate(-50 100)" fill="#2f415e"/><path d="M0,0Z" transform="translate(-50 100)" fill="#364a6a"/><path d="M0,0Z" transform="translate(-50 100)" fill="#2e3e55"/><path d="M0,0Z" transform="translate(-50 100)" fill="#354768"/><path d="M0,0Z" transform="translate(-50 100)" fill="#314463"/><path d="M0,0Z" transform="translate(-50 100)" fill="#c8a37b"/><path d="M0,0Z" transform="translate(-50 100)" fill="#cead8a"/><path d="M0,0Z" transform="translate(-50 100)" fill="#d2b697"/><path d="M0,0Z" transform="translate(-50 100)" fill="#3e4b60"/><path d="M0,0Z" transform="translate(-50 100)" fill="#324463"/><path d="M0,0Z" transform="translate(-50 100)" fill="#324463"/><path d="M0,0Z" transform="translate(-50 100)" fill="#3e5170"/><path d="M0,0Z" transform="translate(-50 100)" fill="#583924"/><path d="M0,0Z" transform="translate(-50 100)" fill="#815a3c"/><path d="M0,0Z" transform="translate(-50 100)" fill="#39465c"/><path d="M0,0Z" transform="translate(-50 100)" fill="#cdab86"/><path d="M0,0Z" transform="translate(-50 100)" fill="#e5dad4"/><path d="M0,0Z" transform="translate(-50 100)" fill="#c99567"/><path d="M0,0Z" transform="translate(-50 100)" fill="#be865c"/><path d="M0,0Z" transform="translate(-50 100)" fill="#e9dfd8"/><path d="M0,0Z" transform="translate(-50 100)" fill="#cbb9ab"/><path d="M0,0Z" transform="translate(-50 100)" fill="#171513"/><path d="M0,0Z" transform="translate(-50 100)" fill="#0a0907"/><path d="M0,0Z" transform="translate(-50 100)" fill="#c6895d"/><path d="M0,0Z" transform="translate(-50 100)" fill="#130e0b"/><path d="M0,0Z" transform="translate(-50 100)" fill="#ebe6e0"/><path d="M0,0Z" transform="translate(-50 100)" fill="#f2f0ed"/><path d="M0,0Z" transform="translate(-50 100)" fill="#c59876"/><path d="M0,0Z" transform="translate(-50 100)" fill="#c69471"/><path d="M0,0Z" transform="translate(-50 100)" fill="#9a7052"/><path d="M0,0Z" transform="translate(-50 100)" fill="#a38160"/><path d="M0,0Z" transform="translate(-50 100)" fill="#a7815b"/><path d="M0,0Z" transform="translate(-50 100)" fill="#5d4e41"/><path d="M0,0Z" transform="translate(-50 100)" fill="#564535"/><path d="M0,0Z" transform="translate(-50 100)" fill="#735b48"/><path d="M0,0Z" transform="translate(-50 100)" fill="#d1a576"/><path d="M0,0Z" transform="translate(-50 100)" fill="#c99f7d"/><path d="M0,0Z" transform="translate(-50 100)" fill="#a57a5b"/><path d="M0,0Z" transform="translate(-50 100)" fill="#181513"/><path d="M0,0Z" transform="translate(-50 100)" fill="#4b3a2e"/><path d="M0,0Z" transform="translate(-50 100)" fill="#e0d6ca"/><path d="M0,0Z" transform="translate(-50 100)" fill="#cfa07b"/><path d="M0,0Z" transform="translate(-50 100)" fill="#dacec4"/><path d="M0,0Z" transform="translate(-50 100)" fill="#eadfdb"/><path d="M0,0Z" transform="translate(-50 100)" fill="#9d6b44"/><path d="M0,0Z" transform="translate(-50 100)" fill="#ebe4de"/><path d="M0,0Z" transform="translate(-50 100)" fill="#ebe4de"/><path d="M0,0Z" transform="translate(-50 100)" fill="#eeeae5"/><path d="M0,0Z" transform="translate(-50 100)" fill="#e1d7cb"/><path d="M0,0Z" transform="translate(-50 100)" fill="#dbcfbe"/><path d="M0,0Z" transform="translate(-50 100)" fill="#202f45"/><path d="M0,0Z" transform="translate(-50 100)" fill="#303e55"/><path d="M0,0Z" transform="translate(-50 100)" fill="#253448"/><path d="M0,0Z" transform="translate(-50 100)" fill="#354155"/><path d="M0,0Z" transform="translate(-50 100)" fill="#3b4a5e"/><path d="M0,0Z" transform="translate(-50 100)" fill="#203149"/><path d="M0,0Z" transform="translate(-50 100)" fill="#3d4a5d"/><path d="M0,0Z" transform="translate(-50 100)" fill="#253448"/><path d="M0,0Z" transform="translate(-50 100)" fill="#1d304b"/><path d="M0,0Z" transform="translate(-50 100)" fill="#37465c"/><path d="M0,0Z" transform="translate(-50 100)" fill="#3e526e"/><path d="M0,0Z" transform="translate(-50 100)" fill="#9d6d44"/><path d="M0,0Z" transform="translate(-50 100)" fill="#b48e63"/><path d="M0,0Z" transform="translate(-50 100)" fill="#966840"/><path d="M0,0Z" transform="translate(-50 100)" fill="#976940"/><path d="M0,0Z" transform="translate(-50 100)" fill="#966840"/><path d="M0,0Z" transform="translate(-50 100)" fill="#966840"/><path d="M0,0Z" transform="translate(-50 100)" fill="#9e6b43"/><path d="M0,0Z" transform="translate(-50 100)" fill="#ae7d4b"/><path d="M0,0Z" transform="translate(-50 100)" fill="#b28250"/><path d="M0,0Z" transform="translate(-50 100)" fill="#aa7c4d"/><path d="M0,0Z" transform="translate(-50 100)" fill="#a27548"/><path d="M0,0Z" transform="translate(-50 100)" fill="#d9ccc2"/><path d="M0,0Z" transform="translate(-50 100)" fill="#d9caba"/><path d="M0,0Z" transform="translate(-50 100)" fill="#c79165"/><path d="M0,0Z" transform="translate(-50 100)" fill="#dcc7b6"/><path d="M0,0Z" transform="translate(-50 100)" fill="#d5bba5"/><path d="M0,0Z" transform="translate(-50 100)" fill="#f8f7f4"/><path d="M0,0Z" transform="translate(-50 100)" fill="#e3d8cb"/><path d="M0,0Z" transform="translate(-50 100)" fill="#f8f7f4"/><path d="M0,0Z" transform="translate(-50 100)" fill="#f8f7f4"/><path d="M0,0Z" transform="translate(-50 100)" fill="#af4b48"/><path d="M0,0Z" transform="translate(-50 100)" fill="#cf9a79"/><path d="M0,0Z" transform="translate(-50 100)" fill="#d7a584"/><path d="M0,0Z" transform="translate(-50 100)" fill="#cb9573"/><path d="M0,0Z" transform="translate(-50 100)" fill="#d7a584"/><path d="M0,0Z" transform="translate(-50 100)" fill="#c99476"/><path d="M0,0Z" transform="translate(-50 100)" fill="#d1977a"/><path d="M0,0Z" transform="translate(-50 100)" fill="#8a5d41"/><path d="M0,0Z" transform="translate(-50 100)" fill="#5f4736"/><path d="M0,0Z" transform="translate(-50 100)" fill="#d09574"/><path d="M0,0Z" transform="translate(-50 100)" fill="#cf9f82"/><path d="M0,0Z" transform="translate(-50 100)" fill="#be8063"/><path d="M0,0Z" transform="translate(-50 100)" fill="#63442f"/><path d="M0,0Z" transform="translate(-50 100)" fill="#3c2a1a"/><path d="M0,0Z" transform="translate(-50 100)" fill="#cfac86"/><path d="M0,0Z" transform="translate(-50 100)" fill="#ca9469"/><path d="M0,0Z" transform="translate(-50 100)" fill="#ab8663"/><path d="M0,0Z" transform="translate(-50 100)" fill="#a37c59"/><path d="M0,0Z" transform="translate(-50 100)" fill="#ad845e"/><path d="M0,0Z" transform="translate(-50 100)" fill="#ac815c"/><path d="M0,0Z" transform="translate(-50 100)" fill="#c39d74"/><path d="M0,0Z" transform="translate(-50 100)" fill="#d0b08b"/><path d="M0,0Z" transform="translate(-50 100)" fill="#ad8662"/><path d="M0,0Z" transform="translate(-50 100)" fill="#cda880"/><path d="M0,0Z" transform="translate(-50 100)" fill="#b18761"/><path d="M0,0Z" transform="translate(-50 100)" fill="#c0986e"/><path d="M0,0Z" transform="translate(-50 100)" fill="#484445"/><path d="M0,0Z" transform="translate(-50 100)" fill="#333f51"/><path d="M0,0Z" transform="translate(-50 100)" fill="#192433"/><path d="M0,0Z" transform="translate(-50 100)" fill="#d1a38d"/><path d="M0,0Z" transform="translate(-50 100)" fill="#c7947e"/><path d="M0,0Z" transform="translate(-50 100)" fill="#d1c4bb"/><path d="M0,0Z" transform="translate(-50 100)" fill="#f0e8e2"/><path d="M0,0Z" transform="translate(-50 100)" fill="#cdbcad"/><path d="M0,0Z" transform="translate(-50 100)" fill="#bd9677"/><path d="M0,0Z" transform="translate(-50 100)" fill="#ded2cc"/><path d="M0,0Z" transform="translate(-50 100)" fill="#a16a42"/><path d="M0,0Z" transform="translate(-50 100)" fill="#966745"/><path d="M0,0Z" transform="translate(-50 100)" fill="#c2b19f"/><path d="M0,0Z" transform="translate(-50 100)" fill="#ede3df"/><path d="M0,0Z" transform="translate(-50 100)" fill="#d0c0aa"/><path d="M0,0Z" transform="translate(-50 100)" fill="#dacec4"/><path d="M0,0Z" transform="translate(-50 100)" fill="#e9dfda"/><path d="M0,0Z" transform="translate(-50 100)" fill="#e0c5b8"/><path d="M0,0Z" transform="translate(-50 100)" fill="#d09678"/><path d="M0,0Z" transform="translate(-50 100)" fill="#c8846b"/><path d="M0,0Z" transform="translate(-50 100)" fill="#bd7b64"/><path d="M0,0Z" transform="translate(-50 100)" fill="#865735"/><path d="M0,0Z" transform="translate(-50 100)" fill="#a76f46"/><path d="M0,0Z" transform="translate(-50 100)" fill="#674832"/><path d="M0,0Z" transform="translate(-50 100)" fill="#422f21"/><path d="M0,0Z" transform="translate(-50 100)" fill="#896444"/><path d="M0,0Z" transform="translate(-50 100)" fill="#725239"/><path d="M0,0Z" transform="translate(-50 100)" fill="#4f3b2b"/><path d="M0,0Z" transform="translate(-50 100)" fill="#382718"/><path d="M0,0Z" transform="translate(-50 100)" fill="#2e405e"/><path d="M0,0Z" transform="translate(-50 100)" fill="#344562"/><path d="M0,0Z" transform="translate(-50 100)" fill="#3c4657"/><path d="M0,0Z" transform="translate(-50 100)" fill="#273958"/><path d="M0,0Z" transform="translate(-50 100)" fill="#273a58"/><path d="M0,0Z" transform="translate(-50 100)" fill="#c09a73"/><path d="M0,0Z" transform="translate(-50 100)" fill="#c59e75"/><path d="M0,0Z" transform="translate(-50 100)" fill="#c09a73"/><path d="M0,0Z" transform="translate(-50 100)" fill="#bd966f"/><path d="M0,0Z" transform="translate(-50 100)" fill="#c8a47d"/><path d="M0,0Z" transform="translate(-50 100)" fill="#a68564"/><path d="M0,0Z" transform="translate(-50 100)" fill="#a67d59"/><path d="M0,0Z" transform="translate(-50 100)" fill="#caa883"/><path d="M0,0Z" transform="translate(-50 100)" fill="#28374b"/><path d="M0,0Z" transform="translate(-50 100)" fill="#2c3e59"/><path d="M0,0Z" transform="translate(-50 100)" fill="#2d3b50"/><path d="M0,0Z" transform="translate(-50 100)" fill="#3e4d64"/><path d="M0,0Z" transform="translate(-50 100)" fill="#5f3e2a"/><path d="M0,0Z" transform="translate(-50 100)" fill="#462d1b"/><path d="M0,0Z" transform="translate(-50 100)" fill="#4f3928"/><path d="M0,0Z" transform="translate(-50 100)" fill="#725239"/><path d="M0,0Z" transform="translate(-50 100)" fill="#ded2cd"/><path d="M0,0Z" transform="translate(-50 100)" fill="#c4b1a1"/><path d="M0,0Z" transform="translate(-50 100)" fill="#dccfc6"/><path d="M0,0Z" transform="translate(-50 100)" fill="#ebe4de"/><path d="M0,0Z" transform="translate(-50 100)" fill="#e7ded8"/><path d="M0,0Z" transform="translate(-50 100)" fill="#d6c5b8"/><path d="M0,0Z" transform="translate(-50 100)" fill="#dccfc6"/><path d="M0,0Z" transform="translate(-50 100)" fill="#dccfc2"/><path d="M0,0Z" transform="translate(-50 100)" fill="#b87f56"/><path d="M0,0Z" transform="translate(-50 100)" fill="#c99568"/><path d="M0,0Z" transform="translate(-50 100)" fill="#a26b49"/><path d="M0,0Z" transform="translate(-50 100)" fill="#bd9576"/><path d="M0,0Z" transform="translate(-50 100)" fill="#c5ac98"/><path d="M0,0Z" transform="translate(-50 100)" fill="#a67657"/><path d="M0,0Z" transform="translate(-50 100)" fill="#30251d"/><path d="M0,0Z" transform="translate(-50 100)" fill="#181513"/><path d="M0,0Z" transform="translate(-50 100)" fill="#ca9469"/><path d="M0,0Z" transform="translate(-50 100)" fill="#c3946a"/><path d="M0,0Z" transform="translate(-50 100)" fill="#e5dad4"/><path d="M0,0Z" transform="translate(-50 100)" fill="#e5dbd5"/><path d="M0,0Z" transform="translate(-50 100)" fill="#ddd2c7"/><path d="M0,0Z" transform="translate(-50 100)" fill="#e7ddd7"/><path d="M0,0Z" transform="translate(-50 100)" fill="#efece7"/><path d="M0,0Z" transform="translate(-50 100)" fill="#ece7e1"/><path d="M0,0Z" transform="translate(-50 100)" fill="#e6dcd3"/><path d="M0,0Z" transform="translate(-50 100)" fill="#b58260"/><path d="M0,0Z" transform="translate(-50 100)" fill="#433528"/><path d="M0,0Z" transform="translate(-50 100)" fill="#4f3b2b"/><path d="M0,0Z" transform="translate(-50 100)" fill="#7e5e43"/><path d="M0,0Z" transform="translate(-50 100)" fill="#4c3c2c"/><path d="M0,0Z" transform="translate(-50 100)" fill="#634d3d"/><path d="M0,0Z" transform="translate(-50 100)" fill="#35281e"/><path d="M0,0Z" transform="translate(-50 100)" fill="#84614d"/><path d="M0,0Z" transform="translate(-50 100)" fill="#a46c43"/><path d="M0,0Z" transform="translate(-50 100)" fill="#e6dbd4"/><path d="M0,0Z" transform="translate(-50 100)" fill="#ac7647"/><path d="M0,0Z" transform="translate(-50 100)" fill="#f0ece6"/><path d="M0,0Z" transform="translate(-50 100)" fill="#efe8e2"/><path d="M0,0Z" transform="translate(-50 100)" fill="#e6dcd6"/><path d="M0,0Z" transform="translate(-50 100)" fill="#e7ddd7"/><path d="M0,0Z" transform="translate(-50 100)" fill="#3c424d"/><path d="M0,0Z" transform="translate(-50 100)" fill="#3b4350"/><path d="M0,0Z" transform="translate(-50 100)" fill="#9f7246"/><path d="M0,0Z" transform="translate(-50 100)" fill="#8f5f3a"/><path d="M0,0Z" transform="translate(-50 100)" fill="#9c6940"/><path d="M0,0Z" transform="translate(-50 100)" fill="#764d2c"/><path d="M0,0Z" transform="translate(-50 100)" fill="#e5dbd5"/><path d="M0,0Z" transform="translate(-50 100)" fill="#e5dad4"/><path d="M0,0Z" transform="translate(-50 100)" fill="#e0d6ce"/><path d="M0,0Z" transform="translate(-50 100)" fill="#cab7a3"/><path d="M0,0Z" transform="translate(-50 100)" fill="#a45f4c"/><path d="M0,0Z" transform="translate(-50 100)" fill="#413021"/><path d="M0,0Z" transform="translate(-50 100)" fill="#734f38"/><path d="M0,0Z" transform="translate(-50 100)" fill="#433529"/><path d="M0,0Z" transform="translate(-50 100)" fill="#4a3422"/><path d="M0,0Z" transform="translate(-50 100)" fill="#281c0c"/><path d="M0,0Z" transform="translate(-50 100)" fill="#4a3422"/><path d="M0,0Z" transform="translate(-50 100)" fill="#c0976c"/><path d="M0,0Z" transform="translate(-50 100)" fill="#be956e"/><path d="M0,0Z" transform="translate(-50 100)" fill="#714d36"/><path d="M0,0Z" transform="translate(-50 100)" fill="#3c2a1a"/><path d="M0,0Z" transform="translate(-50 100)" fill="#9e734f"/><path d="M0,0Z" transform="translate(-50 100)" fill="#e0d5cb"/><path d="M0,0Z" transform="translate(-50 100)" fill="#efece7"/><path d="M0,0Z" transform="translate(-50 100)" fill="#ac9683"/><path d="M0,0Z" transform="translate(-50 100)" fill="#e5dbd5"/><path d="M0,0Z" transform="translate(-50 100)" fill="#e9dfda"/><path d="M0,0Z" transform="translate(-50 100)" fill="#b8a596"/><path d="M0,0Z" transform="translate(-50 100)" fill="#e5dad4"/><path d="M0,0Z" transform="translate(-50 100)" fill="#845432"/><path d="M0,0Z" transform="translate(-50 100)" fill="#a16a42"/><path d="M0,0Z" transform="translate(-50 100)" fill="#563d2a"/><path d="M0,0Z" transform="translate(-50 100)" fill="#4e3726"/><path d="M0,0Z" transform="translate(-50 100)" fill="#5c4230"/><path d="M0,0Z" transform="translate(-50 100)" fill="#5d412e"/><path d="M0,0Z" transform="translate(-50 100)" fill="#453425"/><path d="M0,0Z" transform="translate(-50 100)" fill="#433022"/><path d="M0,0Z" transform="translate(-50 100)" fill="#453323"/><path d="M0,0Z" transform="translate(-50 100)" fill="#3c2d1f"/><path d="M0,0Z" transform="translate(-50 100)" fill="#322317"/><path d="M0,0Z" transform="translate(-50 100)" fill="#714d30"/><path d="M0,0Z" transform="translate(-50 100)" fill="#4b3423"/><path d="M0,0Z" transform="translate(-50 100)" fill="#dfd3c8"/><path d="M0,0Z" transform="translate(-50 100)" fill="#eae2dc"/><path d="M0,0Z" transform="translate(-50 100)" fill="#e5dbd5"/><path d="M0,0Z" transform="translate(-50 100)" fill="#eee7e2"/><path d="M0,0Z" transform="translate(-50 100)" fill="#e7ddd7"/><path d="M0,0Z" transform="translate(-50 100)" fill="#35251b"/><path d="M0,0Z" transform="translate(-50 100)" fill="#392c20"/><path d="M0,0Z" transform="translate(-50 100)" fill="#9d6b44"/><path d="M0,0Z" transform="translate(-50 100)" fill="#eee7e2"/><path d="M0,0Z" transform="translate(-50 100)" fill="#eae2dc"/><path d="M0,0Z" transform="translate(-50 100)" fill="#3b291b"/><path d="M0,0Z" transform="translate(-50 100)" fill="#372617"/><path d="M0,0Z" transform="translate(-50 100)" fill="#533a29"/><path d="M0,0Z" transform="translate(-50 100)" fill="#4e3426"/><path d="M0,0Z" transform="translate(-50 100)" fill="#392a1b"/><path d="M0,0Z" transform="translate(-50 100)" fill="#3f2b1a"/><path d="M0,0Z" transform="translate(-50 100)" fill="#1a120c"/><path d="M0,0Z" transform="translate(-50 100)" fill="#221912"/><path d="M0,0Z" transform="translate(-50 100)" fill="#4d3323"/><path d="M0,0Z" transform="translate(-50 100)" fill="#cdbcad"/><path d="M0,0Z" transform="translate(-50 100)" fill="#5b3e2a"/></svg>