<?xml version="1.0" encoding="utf-8"?>
<!-- Generator: Adobe Illustrator 25.2.3, SVG Export Plug-In . SVG Version: 6.00 Build 0)  -->
<svg version="1.1" id="Calque_1" xmlns="http://www.w3.org/2000/svg" xmlns:xlink="http://www.w3.org/1999/xlink" x="0px" y="0px"
	 viewBox="0 0 19 19" style="enable-background:new 0 0 19 19;" xml:space="preserve">
<style type="text/css">
	.st0{fill:#D0FF00;}
</style>
<desc>Created with Sketch.</desc>
<g id="icon_x2F_icon-start">
	<path id="Path" class="st0" d="M17,7.7c-0.1-0.2-0.2-0.3-0.4-0.4L12,6.6l-2-4.3c-0.2-0.4-0.7-0.4-0.9,0L7,6.7L2.4,7.3
		C2.2,7.4,2.1,7.4,2,7.7C1.9,7.9,2,8.1,2.2,8.2l3.3,3.4l-0.8,4.8c0,0.2,0.1,0.4,0.2,0.6c0.1,0,0.3,0,0.5-0.1l4.1-2.3l4.1,2.3
		c0.1,0.1,0.2,0.1,0.2,0.1s0.2,0,0.3-0.1c0.2-0.1,0.2-0.3,0.2-0.6l-0.8-4.8l3.3-3.4C17,8.1,17,7.8,17,7.7z"/>
</g>
</svg>
