<?xml version="1.0" encoding="UTF-8"?>
<svg width="203px" height="22px" viewBox="0 0 203 22" version="1.1" xmlns="http://www.w3.org/2000/svg" xmlns:xlink="http://www.w3.org/1999/xlink">
    <!-- Generator: Sketch 63.1 (92452) - https://sketch.com -->
    <title>LOGO/LOGO</title>
    <desc>Created with Sketch.</desc>
    <g id="LOGO/LOGO" stroke="none" stroke-width="1" fill="none" fill-rule="evenodd">
        <g id="LOGO">
            <path d="M120.066113,18.6674819 L110.371255,18.6674819 L110.371255,0.915798501 C110.371255,0.556949562 110.220412,0.34550883 110.092362,0.231450896 C109.97437,0.126064033 109.7652,0 109.437368,0 L108.947966,0 C108.603373,0 108.38884,0.134068098 108.269506,0.247459027 C108.146821,0.364184983 108,0.574958709 108,0.915798501 L108,20.0848685 C108,20.4450515 108.152184,20.6551582 108.278892,20.7678821 C108.396885,20.873936 108.606054,21 108.933887,21 L120.066113,21 C120.40132,21 120.613171,20.8652649 120.729823,20.753208 C120.853179,20.637149 121,20.4270423 121,20.0848685 L121,19.5966205 C121,19.2264325 120.849157,19.0129907 120.721108,18.8982658 C120.549482,18.7455215 120.329586,18.6674819 120.066113,18.6674819" id="Fill-60" fill="#25A89B"></path>
            <path d="M139.452601,18.6674819 L127.393644,18.6674819 L127.393644,11.6792657 L153.043897,11.6792657 C153.394648,11.6792657 153.612683,11.5385275 153.737275,11.4177995 C153.857126,11.2990725 154,11.0862978 154,10.7507941 L154,10.261879 C154,9.8770169 153.840198,9.66090713 153.70545,9.54418117 C153.528042,9.39610596 153.305945,9.32073434 153.043897,9.32073434 L127.393644,9.32073434 L127.393644,2.3325181 L139.233212,2.3325181 C139.600892,2.3325181 139.818927,2.18711091 139.939455,2.06438191 C140.053213,1.94565494 140.189315,1.73554821 140.189315,1.40337949 L140.189315,0.92913861 C140.189315,0.356180917 139.82299,0 139.233212,0 L125.941884,0 C125.739423,0 125.550504,0.0486913988 125.37716,0.14407318 C125.20517,0.240121967 125,0.451562699 125,0.915798501 L125,20.0988756 C125,20.3416656 125.066358,20.5471033 125.194335,20.7071846 C125.300644,20.8399187 125.503783,21 125.872817,21 L139.466144,21 C140.047796,21 140.408705,20.6491551 140.408705,20.0848685 L140.408705,19.5966205 C140.408705,19.0236628 140.042379,18.6674819 139.452601,18.6674819" id="Fill-62" fill="#25A89B"></path>
            <path d="M160.568998,5.22682082 C160.120425,4.45173586 159.568439,3.73668329 158.929827,3.10300797 C158.291886,2.46933266 157.573363,1.91770162 156.795747,1.46345647 C156.018131,1.00854429 155.170677,0.649683956 154.278903,0.39621383 C153.387129,0.14341073 152.440963,0.0100053997 151.462563,0 L144.85014,0.0013340533 C144.603693,0.0180097195 144.38948,0.118063717 144.233688,0.290823619 C144.126245,0.407553283 144,0.615665597 144,0.942508655 L144,5.47028555 L146.350308,5.47028555 L146.372468,2.31925166 L151.367208,2.31925166 C152.489983,2.31925166 153.565081,2.52536289 154.564969,2.93158212 C155.565529,3.33846838 156.454617,3.90877616 157.20873,4.62783089 C157.9615,5.34621859 158.566536,6.21135216 159.005708,7.19921863 C159.443537,8.18441699 159.665137,9.27433853 159.665137,10.4389671 C159.665137,11.1847029 159.567096,11.915097 159.37437,12.6114729 C159.180302,13.3098498 158.902294,13.9722072 158.547734,14.5805355 C158.19653,15.1875298 157.762059,15.7484992 157.257079,16.2487692 C156.752098,16.7503732 156.18601,17.1872757 155.573587,17.546803 C154.960492,17.9069974 154.288976,18.1884827 153.574482,18.3852555 C152.870062,18.5786933 151.314829,18.6820824 151.326245,18.6820824 L146.375154,18.6820824 L146.375154,15.1481752 L144,15.1335006 L144,20.1528762 C144,20.4623765 144.137661,20.7105104 144.38948,20.8512531 C144.568103,20.949973 144.755456,21 144.948181,21 L151.367208,21 C152.337549,21 153.288416,20.873932 154.193621,20.625131 C155.094796,20.3763301 155.948293,20.024807 156.729938,19.5805673 C157.511584,19.1363275 158.236821,18.5893657 158.887521,17.9536893 C159.532848,17.3220151 160.094236,16.6076295 160.553553,15.8305435 C161.013542,15.0547915 161.371461,14.2130038 161.620593,13.3285265 C161.872412,12.440047 162,11.5002065 162,10.5336848 C162,9.56783026 161.872412,8.6253216 161.621936,7.73350697 C161.371461,6.84502748 161.017571,6.00123876 160.568998,5.22682082" id="Fill-64" fill="#25A89B"></path>
            <path d="M182.065921,9.83880983 L173.698153,9.83880983 C173.122664,9.83880983 172.762731,10.20237 172.762731,10.7882953 L172.762731,11.2882758 C172.762731,11.6272803 172.898377,11.8421424 173.011192,11.9628743 C173.128707,12.088381 173.344264,12.2384434 173.698153,12.2384434 L180.638948,12.2384434 L180.638948,18.0349432 C179.919082,18.4844481 179.158254,18.8561935 178.375266,19.141312 C176.836821,19.7033638 175.089536,19.7374689 173.542361,19.2975133 C172.829882,19.0962933 172.157023,18.8064001 171.541914,18.4353368 C170.924119,18.0622272 170.351315,17.6079475 169.838276,17.0861398 C169.325238,16.5656962 168.880694,15.9811351 168.518747,15.3508732 C168.156799,14.7199292 167.86939,14.0323707 167.666592,13.3072967 C167.464466,12.5876794 167.362395,11.8230435 167.362395,11.0331698 C167.362395,10.2726265 167.46178,9.52436098 167.659877,8.80747215 C167.859317,8.08853702 168.145383,7.40438908 168.510688,6.77480926 C168.879351,6.14250104 169.325238,5.55521153 169.839619,5.02862906 C170.354001,4.50136449 170.93352,4.04094588 171.564074,3.66033317 C172.19127,3.28040255 172.880918,2.98027783 173.612871,2.76882632 C175.235255,2.3009046 177.105428,2.35615483 178.683492,2.9263918 C179.555792,3.24288696 180.368998,3.70057716 181.09155,4.27831725 C181.471628,4.60504394 181.976609,4.61254706 182.308338,4.31310444 C182.425182,4.20942499 182.525238,4.08528249 182.606491,3.94340535 C182.683716,3.80971343 182.744152,3.66920049 182.784443,3.52527704 C182.828092,3.37453258 182.850252,3.24356906 182.850252,3.12624758 C182.850252,2.85272482 182.709905,2.58193047 182.43324,2.32136764 C182.229771,2.12969708 181.984667,1.93870862 181.705316,1.75454118 C181.434024,1.57514845 181.139899,1.40735144 180.831673,1.25592488 C180.536877,1.11131933 180.287745,0.991269444 180.076217,0.893728909 C179.418131,0.607246219 178.727812,0.383516881 178.023391,0.230726113 C176.38019,-0.127377248 174.544264,-0.0659881007 172.933296,0.396476812 C172.019362,0.659768046 171.151091,1.03628815 170.354001,1.51580561 C169.55624,1.99532306 168.820257,2.57579156 168.164857,3.24084066 C167.510129,3.90588976 166.941354,4.65347316 166.472636,5.46585621 C166.005932,6.27482876 165.639955,7.15951459 165.384107,8.09467594 C165.129603,9.02983729 165,10.0093352 165,11.0058857 C165,12.5208335 165.286066,13.9627964 165.848797,15.2915304 C166.407499,16.6161717 167.185115,17.7914329 168.158142,18.785255 C169.129827,19.778395 170.285506,20.570315 171.590263,21.1398698 C172.89972,21.7107889 174.319978,22 175.810073,22 C177.080582,22 178.302071,21.7960516 179.441634,21.3936116 C180.573139,20.9925359 181.611975,20.4154779 182.566872,19.6440209 C182.816004,19.4953228 182.968439,19.235442 183,18.872564 L183,10.7357735 C182.968439,10.1825891 182.61052,9.83880983 182.065921,9.83880983" id="Fill-66" fill="#25A89B"></path>
            <path d="M202.005888,18.6674819 L189.486686,18.6674819 L189.486686,11.7039449 L199.332191,11.7039449 C199.697777,11.7039449 199.924159,11.5625397 200.050707,11.4431457 C200.175147,11.3244188 200.326303,11.111644 200.326303,10.7748063 L200.326303,10.2865583 C200.326303,9.90102909 200.158977,9.68358531 200.01907,9.57019438 C199.836277,9.42078516 199.605677,9.34474654 199.332191,9.34474654 L189.486686,9.34474654 L189.486686,2.3325181 L201.7781,2.3325181 C202.161262,2.3325181 202.38905,2.18644391 202.509975,2.06504891 C202.629493,1.94765595 202.770806,1.73688223 202.770806,1.40337949 L202.770806,0.92913861 C202.770806,0.356180917 202.390456,0 201.7781,0 L187.979348,0 C187.769136,0 187.572985,0.0486913988 187.394411,0.14407318 C187.21443,0.240121967 187,0.451562699 187,0.915798501 L187,20.0988756 C187,20.3409986 187.068899,20.5471033 187.203181,20.7071846 C187.31356,20.8399187 187.524475,21 187.907637,21 L202.020652,21 C202.623869,21 203,20.6491551 203,20.0848685 L203,19.5966205 C203,19.0236628 202.61965,18.6674819 202.005888,18.6674819" id="Fill-68" fill="#25A89B"></path>
            <path d="M16.0564155,0 L15.5879884,0 C15.2386872,0 15.0327408,0.143232973 14.9210183,0.262593783 C14.8133339,0.377180162 14.6847856,0.58384488 14.6847856,0.916008964 L14.6847856,14.3955958 L2.3010808,14.3955958 L2.3010808,0.916008964 C2.3010808,0.573613953 2.15705293,0.362856864 2.03658102,0.246906363 C1.92014727,0.13436617 1.71285482,0 1.38509046,0 L0.902529791,0 C0.554574607,0 0.348628212,0.142550911 0.234886575,0.263957907 C0.127875213,0.378544285 0,0.585209003 0,0.916008964 L0,20.0846731 C0,20.6487382 0.345936102,21 0.902529791,21 L1.37095689,21 C1.94437626,21 2.3010808,20.6487382 2.3010808,20.0846731 L2.3010808,16.7541654 L14.6847856,16.7541654 L14.6847856,20.0846731 C14.6847856,20.6487382 15.0313948,21 15.5879884,21 L16.0564155,21 C16.6385843,21 17,20.6487382 17,20.0846731 L17,0.916008964 C17,0.56474715 16.8411655,0.351261814 16.705887,0.231901004 C16.5315729,0.0804832895 16.3074548,0 16.0564155,0" id="Fill-70" fill="#030405"></path>
            <path d="M37.9654443,0.997118276 C37.9889422,0.907962497 38,0.829015395 38,0.756193499 C38,0.540450125 37.9170662,0.353291046 37.7657121,0.230786922 C37.6655004,0.149117506 37.5431731,0.0912683364 37.398039,0.0572394131 C37.2881517,0.0320580098 37.163751,0.0184464404 37.0317481,0.0184464404 L36.742171,0.0184464404 C36.4781651,0.0184464404 36.2708306,0.0470307361 36.1084186,0.104199327 C35.9377133,0.166131968 35.7925792,0.250523698 35.6778541,0.356693939 C35.5679668,0.457419552 35.4746663,0.579243097 35.4048637,0.713317055 C35.3571768,0.803153413 35.3018876,0.899114977 35.243834,0.997798854 L32.4323787,5.64819152 C31.6244655,6.98552821 30.8110233,8.33443473 29.9927433,9.69559166 C29.2290614,8.43175745 28.4715995,7.17336786 27.7189754,5.92042291 C26.8447151,4.46398499 25.9669993,2.99529666 25.0844456,1.51027444 L24.5350093,0.617355491 C24.4147553,0.419987736 24.2668567,0.27162163 24.0961514,0.175660066 C23.9420327,0.0899071795 23.7768563,0.0354609021 23.6047687,0.0150435481 C23.4610168,-0.00197091357 23.3200294,-0.00401264897 23.1748953,0.00619602803 C22.8569824,0.0320580098 22.5591119,0.0218493328 22.3110017,0.205605519 C22.1105784,0.353291046 22,0.563589793 22,0.796347628 C22,0.983506707 22.0677293,1.17406868 22.1852188,1.34012982 L28.8185392,12.231427 L28.8185392,20.0730521 C28.8185392,20.6440575 29.1737722,21 29.7460153,21 L30.2691892,21 C30.8400501,21 31.1952831,20.6440575 31.1952831,20.0730521 L31.1952831,12.1790225 C32.3148892,10.3809342 33.4234374,8.56447025 34.4898277,6.77931293 C35.581098,4.95127917 36.7041596,3.10486979 37.8085612,1.31630958 C37.8845838,1.21081991 37.9377997,1.1039691 37.9654443,0.997118276" id="Fill-72" fill="#030405"></path>
            <path d="M53.3416841,10.5944656 C53.0633264,11.3181331 52.6630215,11.9715483 52.1513736,12.5362954 C51.6423766,13.0976323 51.0140836,13.558024 50.2843888,13.9045114 C49.559996,14.2469064 48.7361898,14.4215142 47.8348411,14.4215142 L44.5316632,14.4215142 L44.5316632,2.3053688 L47.7288001,2.3053688 C48.6672631,2.3053688 49.5162541,2.47929455 50.253902,2.82373575 C50.9955264,3.16954107 51.6324353,3.63266102 52.144746,4.19877229 C52.6603705,4.76692975 53.0633264,5.42239111 53.3416841,6.14605866 C53.6200418,6.87109032 53.7605461,7.62135828 53.7605461,8.37708272 C53.7605461,9.12394037 53.6200418,9.87011595 53.3416841,10.5944656 M53.7578951,2.58978856 C53.0434437,1.81155608 52.17457,1.17928481 51.1764589,0.710026308 C50.1723829,0.239403683 49.0437088,0 47.821586,0 L43.016602,0 L42.9072472,0.0572931891 C42.5095934,0.13845854 42.265699,0.465166131 42.265699,0.928968138 L42.265699,14.4440222 L37.1227093,14.4440222 C36.5023694,14.4440222 36,14.961025 36,15.5994349 C36,16.2371626 36.5023694,16.7548475 37.1227093,16.7548475 L42.265699,16.7548475 L42.265699,20.0853552 C42.265699,20.6494202 42.6063558,21 43.1544554,21 L43.6422441,21 C44.1910064,21 44.5316632,20.6494202 44.5316632,20.0853552 L44.5316632,16.7671246 L47.821586,16.7671246 C49.0629287,16.7671246 50.2041952,16.5229465 51.2122477,16.042775 C52.2143354,15.5639677 53.0818836,14.9221475 53.7883819,14.1336841 C54.4922292,13.3472669 55.042317,12.4448992 55.4253902,11.4504531 C55.8064751,10.4546429 56,9.42063724 56,8.37708272 C56,7.31374842 55.8038241,6.26746565 55.4174371,5.26892721 C55.0310501,4.27038878 54.473672,3.36870311 53.7578951,2.58978856" id="Fill-74" fill="#030405"></path>
            <path d="M76.9674667,0.491523529 L76.4794667,0.491523529 C75.9061333,0.491523529 75.5501333,0.847347059 75.5501333,1.42031765 L75.5501333,17.2977588 C73.3828,14.6135235 71.2234667,11.9428176 69.0728,9.28361176 C66.6734667,6.31661176 64.2614667,3.33337647 61.8101333,0.301435294 C61.6301333,0.120141176 61.4088,0.0240823529 61.1708,0.0240823529 C60.7008,0.0240823529 60.5328,0.325788235 60.4801333,0.459729412 C60.4208,0.615994118 60.3908,0.772935294 60.3908,0.924464706 L60.3908,20.8614059 C60.3908,21.4337 60.7468,21.7888471 61.3194667,21.7888471 L61.7934667,21.7888471 C62.3661333,21.7888471 62.7221333,21.4337 62.7221333,20.8614059 L62.7221333,5.05364118 L76.3721333,21.9789353 C76.5414667,22.2028471 76.7914667,22.3252882 77.0754667,22.3252882 C77.5101333,22.3252882 77.6901333,22.0804059 77.7594667,21.9329353 C77.8254667,21.7908765 77.8661333,21.6481412 77.8814667,21.4668471 L77.8814667,1.42031765 C77.8814667,0.847347059 77.5314667,0.491523529 76.9674667,0.491523529" id="Fill-76" fill="#030405"></path>
            <path d="M93.9935204,2.41266878 C95.168036,2.41266878 96.2873043,2.64063479 97.3226787,3.09110655 C98.3628275,3.54430845 99.2836149,4.16746105 100.059123,4.94350104 C100.835312,5.71954103 101.457355,6.64096054 101.908882,7.68182332 C102.359727,8.71722584 102.588219,9.83862751 102.588219,11.0132668 C102.588219,11.8002273 102.483181,12.5653467 102.277879,13.2881491 C102.07326,14.0109516 101.779972,14.6975797 101.406883,15.3302878 C101.033111,15.9623133 100.579538,16.5479266 100.059123,17.0693818 C99.536661,17.5915195 98.9528135,18.0447214 98.3219036,18.418067 C97.6916757,18.7900474 97.0007441,19.081489 96.2702527,19.2821537 C95.5383971,19.4835009 94.7717563,19.5858809 93.9935204,19.5858809 C92.8196869,19.5858809 91.6997365,19.3599625 90.662998,18.9135859 C89.6228492,18.4658443 88.7020617,17.8467869 87.926554,17.0748421 C87.1524105,16.3049449 86.5324136,15.386938 86.084297,14.3453927 C85.6382266,13.3099902 85.4131452,12.1885885 85.4131452,11.0132668 C85.4131452,10.231084 85.5168191,9.46528198 85.7221206,8.73701929 C85.9287862,8.00261382 86.2193458,7.31052538 86.5883429,6.67918239 C86.9552938,6.04852192 87.4061386,5.4642737 87.9272361,4.94350104 C88.4490157,4.42136332 89.0349093,3.96816142 89.6705937,3.59481589 C90.304914,3.22215288 90.9951635,2.92798117 91.7195164,2.72185622 C92.4404588,2.51641379 93.2050535,2.41266878 93.9935204,2.41266878 M104.603038,8.08315271 C104.339079,7.15081267 103.96599,6.26624994 103.491955,5.45471823 C103.016556,4.6445516 102.438165,3.89513039 101.771787,3.22829568 C101.106092,2.5621435 100.357185,1.98335554 99.547574,1.50831259 C98.7359169,1.03326964 97.8519609,0.659241575 96.9202604,0.396466381 C95.0473105,-0.132496672 92.9383661,-0.131814139 91.0654162,0.396466381 C90.1330336,0.659241575 89.2490777,1.03395218 88.4381026,1.50831259 C87.6298558,1.98335554 86.8809487,2.56146097 86.2138893,3.22829568 C85.5488761,3.89444786 84.9704852,4.64318653 84.495086,5.45471823 C84.021051,6.26488487 83.6493257,7.15013014 83.3901411,8.08520031 C83.1309564,9.02231808 83,10.0065306 83,11.0132668 C83,12.0193204 83.1309564,13.0021678 83.3901411,13.9338253 C83.6493257,14.8654828 84.021051,15.747998 84.495086,16.5574821 C84.9704852,17.3690138 85.5488761,18.118435 86.2138893,18.7845872 C86.8836769,19.4527869 87.6325841,20.0308924 88.4381026,20.5032052 C89.2511239,20.9796132 90.1357619,21.3522762 91.0681445,21.6089086 C92.0025732,21.8682711 92.9874748,22 93.9935204,22 C94.999566,22 95.9837855,21.8682711 96.9175322,21.6089086 C97.8485506,21.3522762 98.7331887,20.9802957 99.546892,20.5032052 C100.355139,20.0302098 101.103364,19.4527869 101.771787,18.7839046 C102.438165,18.1163874 103.017238,17.3669662 103.491955,16.5574821 C103.96599,15.7466329 104.339079,14.8648003 104.603038,13.9358729 C104.866315,13.0035329 105,12.0206854 105,11.0132668 C105,10.0058481 104.866315,9.02027048 104.603038,8.08315271" id="Fill-79" fill="#030405"></path>
        </g>
    </g>
</svg>