<?xml version="1.0" encoding="utf-8"?>
<!-- Generator: Adobe Illustrator 25.2.3, SVG Export Plug-In . SVG Version: 6.00 Build 0)  -->
<svg version="1.1" xmlns="http://www.w3.org/2000/svg" xmlns:xlink="http://www.w3.org/1999/xlink" x="0px" y="0px"
	 viewBox="0 0 1020 660" style="enable-background:new 0 0 1020 660;" xml:space="preserve">
<style type="text/css">
	.st0{fill-rule:evenodd;clip-rule:evenodd;fill:#008082;}
	.st1{fill-rule:evenodd;clip-rule:evenodd;fill:#D8FD00;}
</style>
<g id="Calque_1">
	<desc>Created with Sketch.</desc>
	<g id="Page-1">
		<g id="Tarifs" transform="translate(-192.000000, -498.000000)">
			<g id="Group-15" transform="translate(174.793871, 474.811408)">
				
					<g id="shape-video" transform="translate(363.553727, 286.217911) rotate(1.000000) translate(-363.553727, -286.217911) translate(4.832039, 6.217911)">
					<path id="Rectangle-Copy-8" class="st0" d="M330.5,33.3c212.48,72.32,414.28,60.31,368.06,203.83
						c-46.22,143.52-359.63,317.34-523.32,278.26S-23.18,329.41,51.38,257.62S118.03-39.02,330.5,33.3z"/>
				</g>
			</g>
		</g>
	</g>
</g>
<g id="Calque_2">
	
		<g id="shape-video_1_" transform="translate(710.553727, 445.217911) rotate(168.000000) translate(-710.553727, -445.217911) translate(351.832039, 165.217911)">
		<path id="Rectangle-Copy-8_1_" class="st1" d="M342.51,59.56c212.48,72.32,414.28,60.31,368.06,203.83
			S350.95,580.73,187.26,541.65S-11.17,355.67,63.39,283.88S130.03-12.76,342.51,59.56z"/>
	</g>
</g>
</svg>
